<svg width="48" height="48" viewBox="0 0 48 48" fill="none" xmlns="http://www.w3.org/2000/svg">
<path d="M24 48C19.5 47.9375 15.4688 46.8438 11.9062 44.7188C8.28125 42.5938 5.40625 39.7188 3.28125 36.0938C1.15625 32.5312 0.0625 28.5 0 24C0.0625 19.5 1.15625 15.4688 3.28125 11.9062C5.40625 8.28125 8.28125 5.40625 11.9062 3.28125C15.4688 1.15625 19.5 0.0625 24 0C28.5 0.0625 32.5312 1.15625 36.0938 3.28125C39.7188 5.40625 42.5938 8.28125 44.7188 11.9062C46.8438 15.4688 47.9375 19.5 48 24C47.9375 28.5 46.8438 32.5312 44.7188 36.0938C42.5938 39.7188 39.7188 42.5938 36.0938 44.7188C32.5312 46.8438 28.5 47.9375 24 48ZM24 12C22.625 12.125 21.875 12.875 21.75 14.25V24.75C21.875 26.125 22.625 26.875 24 27C25.375 26.875 26.125 26.125 26.25 24.75V14.25C26.125 12.875 25.375 12.125 24 12ZM27 33C27 32.125 26.7188 31.4062 26.1562 30.8438C25.5938 30.2812 24.875 30 24 30C23.125 30 22.4062 30.2812 21.8438 30.8438C21.2812 31.4062 21 32.125 21 33C21 33.875 21.2812 34.5938 21.8438 35.1562C22.4062 35.7188 23.125 36 24 36C24.875 36 25.5938 35.7188 26.1562 35.1562C26.7188 34.5938 27 33.875 27 33Z" fill="#FACD2E"/>
</svg>
