<svg width="22" height="17" viewBox="0 0 22 17" fill="none" xmlns="http://www.w3.org/2000/svg">
<path d="M20.1667 0H1.83333C1.32407 0 0.891204 0.177083 0.534722 0.53125C0.178241 0.885417 0 1.31548 0 1.82143V15.1786C0 15.6845 0.178241 16.1146 0.534722 16.4688C0.891204 16.8229 1.32407 17 1.83333 17H20.1667C20.6759 17 21.1088 16.8229 21.4653 16.4688C21.8218 16.1146 22 15.6845 22 15.1786V1.82143C22 1.31548 21.8218 0.885417 21.4653 0.53125C21.1088 0.177083 20.6759 0 20.1667 0ZM6.11111 13.8125C6.11111 13.939 6.06019 14.0528 5.95833 14.154C5.88194 14.2299 5.78009 14.2679 5.65278 14.2679H2.90278C2.77546 14.2679 2.66088 14.2299 2.55903 14.154C2.48264 14.0528 2.44444 13.939 2.44444 13.8125V12.2946C2.44444 12.1682 2.48264 12.067 2.55903 11.9911C2.66088 11.8899 2.77546 11.8393 2.90278 11.8393H5.65278C5.78009 11.8393 5.88194 11.8899 5.95833 11.9911C6.06019 12.067 6.11111 12.1682 6.11111 12.2946V13.8125ZM13.4444 13.8125C13.4444 13.939 13.3935 14.0528 13.2917 14.154C13.2153 14.2299 13.1134 14.2679 12.9861 14.2679H7.79167C7.66435 14.2679 7.54977 14.2299 7.44792 14.154C7.37153 14.0528 7.33333 13.939 7.33333 13.8125V12.2946C7.33333 12.1682 7.37153 12.067 7.44792 11.9911C7.54977 11.8899 7.66435 11.8393 7.79167 11.8393H12.9861C13.1134 11.8393 13.2153 11.8899 13.2917 11.9911C13.3935 12.067 13.4444 12.1682 13.4444 12.2946V13.8125Z" fill="#081E60"/>
<path d="M20.0436 2.42857H13.3007V9.10714H20.0436V2.42857Z" fill="#EA1C24"/>
<path fill-rule="evenodd" clip-rule="evenodd" d="M14.6395 7.94925C15.0783 7.88369 15.4317 7.79458 15.8479 7.64313C16.4007 7.44193 16.8379 7.18249 17.2694 6.80277C17.3864 6.68 17.5178 6.52108 17.5856 6.36627C17.6714 6.17063 17.681 5.96108 17.5441 5.7852C17.4547 5.67048 17.217 5.52473 17.0722 5.50849C16.9617 5.67794 16.7365 5.8667 16.5807 6.00045C16.3914 6.16287 16.214 6.27584 16.0029 6.40636C15.7486 6.56352 15.2921 6.77862 15.0009 6.88442C14.9132 6.91632 14.7088 6.97309 14.6395 7.01348V7.94925ZM14.6394 6.33934C14.8473 6.30437 15.3648 6.05634 15.5732 5.95801C15.7241 5.88675 16.2614 5.5499 16.3409 5.42625C16.1769 5.4005 15.6072 5.49532 15.4242 5.53585C15.2871 5.56644 15.1551 5.60536 15.0206 5.64531C14.8891 5.68423 14.7667 5.73706 14.6394 5.77759V6.33934ZM16.4313 8.06573C17.027 8.10158 17.9685 8.1004 18.4015 7.63215C18.7172 7.29062 18.8029 6.67239 18.5921 6.25725C18.5445 6.16331 18.415 5.98055 18.321 5.93284C18.322 6.5145 18.0251 6.86744 17.6411 7.26238C17.5705 7.33482 17.448 7.42934 17.3657 7.493C17.1248 7.67971 16.8643 7.84199 16.5917 7.97939C16.5516 7.99973 16.4634 8.04173 16.4313 8.06573ZM16.7557 4.83392C16.7766 4.71934 16.794 4.61325 16.7475 4.50278C16.5092 3.93575 15.4787 3.97014 14.9681 4.04272C14.8928 4.0534 14.7054 4.07725 14.6434 4.10286C14.6305 4.14574 14.6398 4.51053 14.6398 4.58765C14.64 4.74919 14.6381 4.9122 14.6406 5.0736C14.7048 5.06336 14.8053 5.02692 14.8756 5.0098C15.4706 4.86567 15.8698 4.80963 16.483 4.82148C16.5392 4.8225 16.7204 4.84753 16.7557 4.83392ZM16.2636 3.47936C16.2796 3.49062 16.4835 3.54111 16.5259 3.55515C17.1013 3.74684 17.5811 4.18232 17.4177 4.83245C17.4074 4.87372 17.3849 4.93035 17.386 4.97088C17.6578 5.07375 18.0594 5.25973 18.1873 5.53629C18.7406 5.2928 18.788 4.27567 18.3946 3.80991C18.0047 3.34854 16.8224 3.4656 16.2636 3.47936Z" fill="white"/>
</svg>
