<svg width="85" height="62" viewBox="0 0 85 62" fill="none" xmlns="http://www.w3.org/2000/svg">
<path d="M1.32422 12.9766L7.06641 1.49219C7.52214 0.671875 8.2513 0.261719 9.25391 0.261719L42.75 4.36328L31.4023 23.3672C30.1263 25.2812 28.4401 25.9648 26.3438 25.418L4.05859 19.1289C2.69141 18.6732 1.77995 17.8529 1.32422 16.668C0.777344 15.4831 0.777344 14.2526 1.32422 12.9766ZM42.75 4.36328L76.2461 0.261719C77.2487 0.261719 77.9779 0.671875 78.4336 1.49219L84.1758 12.9766C84.7227 14.2526 84.7227 15.4831 84.1758 16.668C83.7201 17.8529 82.8086 18.6732 81.4414 19.1289L59.1562 25.418C57.0599 25.9648 55.3737 25.2812 54.0977 23.3672L42.75 4.36328ZM77.75 24.7344V47.5664C77.75 49.0247 77.2943 50.3464 76.3828 51.5312C75.4714 52.7161 74.2865 53.4909 72.8281 53.8555L44.9375 60.8281C43.4792 61.1927 42.0664 61.1927 40.6992 60.8281L12.6719 53.8555C11.2135 53.4909 10.0286 52.7161 9.11719 51.5312C8.20573 50.3464 7.75 49.0247 7.75 47.5664V24.7344L14.3125 26.5117V47.5664L39.4688 53.8555V20.9062C39.651 18.901 40.7448 17.8073 42.75 17.625C44.7552 17.8073 45.849 18.901 46.0312 20.9062V53.8555L71.1875 47.5664V26.5117L77.75 24.7344ZM42.6133 13.25H42.8867H42.6133Z" fill="#BDBDBD"/>
</svg>
