<svg width="22" height="38" viewBox="0 0 22 38" fill="none" xmlns="http://www.w3.org/2000/svg">
<path d="M0.641017 15.2391L20.5153 15.0657C20.6715 15.0643 20.797 15.1257 20.8919 15.2499C21.0177 15.3426 21.0813 15.467 21.0826 15.6233L21.189 27.8103C21.1945 28.4353 20.9804 28.9684 20.5467 29.4097C20.113 29.851 19.5837 30.0744 18.9587 30.0798L2.45935 30.2238C1.83437 30.2293 1.30124 30.0152 0.859935 29.5815C0.418634 29.1479 0.195256 28.6185 0.189802 27.9936L0.0834475 15.8065C0.082084 15.6503 0.127866 15.5249 0.220795 15.4303C0.344699 15.3042 0.484773 15.2405 0.641017 15.2391ZM21.0597 12.9984L21.045 11.3109C21.0396 10.686 20.8162 10.1566 20.3749 9.72297C19.9336 9.2893 19.4004 9.07519 18.7755 9.08065L16.5256 9.10028L16.5043 6.66288C16.5029 6.50663 16.4393 6.38218 16.3135 6.28953C16.2187 6.16535 16.0931 6.10394 15.9369 6.10531L14.062 6.12167C13.9057 6.12303 13.7656 6.18676 13.6417 6.31284C13.5488 6.40741 13.503 6.53281 13.5044 6.68906L13.5257 9.12646L7.52589 9.17882L7.50462 6.74141C7.50326 6.58517 7.43967 6.46072 7.31386 6.36806C7.21902 6.24389 7.09348 6.18248 6.93724 6.18384L5.06231 6.20021C4.90606 6.20157 4.76599 6.26529 4.64208 6.39138C4.54916 6.48595 4.50337 6.61135 4.50474 6.76759L4.52601 9.205L2.27609 9.22464C1.65112 9.23009 1.1218 9.45347 0.688131 9.89477C0.254466 10.3361 0.0403602 10.8692 0.0458143 11.4942L0.0605403 13.1816C0.0619039 13.3379 0.110004 13.4781 0.204841 13.6023C0.330655 13.6949 0.471684 13.7406 0.627928 13.7392L20.5022 13.5658C20.6584 13.5644 20.783 13.5164 20.8759 13.4219C20.9998 13.2958 21.0611 13.1546 21.0597 12.9984Z" fill="#707070" fill-opacity="0.5"/>
</svg>
