<svg width="17" height="20" viewBox="0 0 17 20" fill="none" xmlns="http://www.w3.org/2000/svg">
<g clip-path="url(#clip0_908_1673)">
<path d="M4.85714 0C5.52879 0 6.07143 0.542634 6.07143 1.21429V2.42857H10.9286V1.21429C10.9286 0.542634 11.4712 0 12.1429 0C12.8145 0 13.3571 0.542634 13.3571 1.21429V2.42857H15.1786C16.1842 2.42857 17 3.24442 17 4.25V6.07143H0V4.25C0 3.24442 0.815848 2.42857 1.82143 2.42857H3.64286V1.21429C3.64286 0.542634 4.18549 0 4.85714 0ZM0 7.28571H17V17.6071C17 18.6127 16.1842 19.4286 15.1786 19.4286H1.82143C0.815848 19.4286 0 18.6127 0 17.6071V7.28571ZM3.03571 9.71429C2.70179 9.71429 2.42857 9.9875 2.42857 10.3214V12.75C2.42857 13.0839 2.70179 13.3571 3.03571 13.3571H13.9643C14.2982 13.3571 14.5714 13.0839 14.5714 12.75V10.3214C14.5714 9.9875 14.2982 9.71429 13.9643 9.71429H3.03571Z" fill="#081E60"/>
</g>
<defs>
<clipPath id="clip0_908_1673">
<rect width="17" height="19.4286" fill="white"/>
</clipPath>
</defs>
</svg>
