<svg width="22" height="38" viewBox="0 0 22 38" fill="none" xmlns="http://www.w3.org/2000/svg">
<path d="M0.641017 14.9889L20.5153 14.8154C20.6715 14.8141 20.797 14.8755 20.8919 14.9997C21.0177 15.0923 21.0813 15.2168 21.0826 15.373L21.189 27.5601C21.1945 28.185 20.9804 28.7182 20.5467 29.1595C20.113 29.6008 19.5837 29.8241 18.9587 29.8296L2.45935 29.9736C1.83437 29.979 1.30124 29.7649 0.859935 29.3313C0.418634 28.8976 0.195256 28.3683 0.189802 27.7433L0.0834475 15.5563C0.082084 15.4 0.127866 15.2746 0.220795 15.1801C0.344699 15.054 0.484773 14.9903 0.641017 14.9889ZM21.0597 12.7481L21.045 11.0607C21.0396 10.4357 20.8162 9.90639 20.3749 9.47272C19.9336 9.03906 19.4004 8.82495 18.7755 8.8304L16.5256 8.85004L16.5043 6.41263C16.5029 6.25639 16.4393 6.13194 16.3135 6.03928C16.2187 5.9151 16.0931 5.8537 15.9369 5.85506L14.062 5.87142C13.9057 5.87279 13.7656 5.93651 13.6417 6.0626C13.5488 6.15716 13.503 6.28257 13.5044 6.43881L13.5257 8.87622L7.52589 8.92858L7.50462 6.49117C7.50326 6.33493 7.43967 6.21048 7.31386 6.11782C7.21902 5.99364 7.09348 5.93224 6.93724 5.9336L5.06231 5.94996C4.90606 5.95133 4.76599 6.01505 4.64208 6.14114C4.54916 6.2357 4.50337 6.36111 4.50474 6.51735L4.52601 8.95476L2.27609 8.97439C1.65112 8.97985 1.1218 9.20322 0.688131 9.64452C0.254466 10.0858 0.0403602 10.619 0.0458143 11.2439L0.0605403 12.9314C0.0619039 13.0876 0.110004 13.2278 0.204841 13.352C0.330655 13.4447 0.471684 13.4903 0.627928 13.4889L20.5022 13.3155C20.6584 13.3141 20.783 13.2662 20.8759 13.1716C20.9998 13.0455 21.0611 12.9044 21.0597 12.7481Z" fill="#081E60"/>
</svg>
