<svg width="30" height="30" viewBox="0 0 30 30" fill="none" xmlns="http://www.w3.org/2000/svg">
<g clip-path="url(#clip0_1328_2140)">
<path d="M19.6875 20.625C22.6172 20.5469 25.0391 19.5313 26.9531 17.5781C28.9063 15.6641 29.9219 13.2422 30 10.3125C29.9219 7.38281 28.9063 4.96092 26.9531 3.04688C25.0391 1.09375 22.6172 0.0781252 19.6875 0C16.7578 0.0781252 14.3359 1.09375 12.4219 3.04688C10.4687 4.96092 9.45314 7.38281 9.375 10.3125C9.375 11.4062 9.53123 12.4609 9.84375 13.4766L0.410156 22.9102C0.136719 23.1836 0 23.5156 0 23.9062V28.5938C0.0781252 29.4531 0.546877 29.9219 1.40625 30H6.09375C6.95311 29.9219 7.42186 29.4531 7.5 28.5938V26.25H9.84375C10.7031 26.1719 11.1719 25.7031 11.25 24.8438V22.5H13.5938C13.9844 22.5 14.3164 22.3633 14.5898 22.0898L16.5234 20.1562C17.5391 20.4688 18.5938 20.625 19.6875 20.625ZM22.0312 10.3125C21.3672 10.3125 20.8203 10.0781 20.3906 9.60938C19.9219 9.17967 19.6875 8.63283 19.6875 7.96875C19.6875 7.30467 19.9219 6.75783 20.3906 6.32812C20.8203 5.85938 21.3672 5.625 22.0312 5.625C22.6953 5.625 23.2422 5.85938 23.6719 6.32812C24.1406 6.75783 24.375 7.30467 24.375 7.96875C24.375 8.63283 24.1406 9.17967 23.6719 9.60938C23.2422 10.0781 22.6953 10.3125 22.0312 10.3125Z" fill="#081E60"/>
</g>
<defs>
<clipPath id="clip0_1328_2140">
<rect width="30" height="30" fill="white"/>
</clipPath>
</defs>
</svg>
