<svg width="35" height="31" viewBox="0 0 35 31" fill="none" xmlns="http://www.w3.org/2000/svg">
<path d="M34.1562 5.20312L32.5742 6.78516L28.5898 2.80078L30.1719 1.21875C30.7578 0.632812 31.6953 0.632812 32.2812 1.21875L34.1562 3.09375C34.7422 3.67969 34.7422 4.61719 34.1562 5.20312ZM33.2773 8.71875C34.0391 9.24609 34.625 10.125 34.625 11.0625V27.9375C34.625 29.5195 33.3359 30.75 31.8125 30.75H3.6875C2.10547 30.75 0.875 29.5195 0.875 27.9375V11.0625C0.875 9.53906 2.10547 8.25 3.6875 8.25H20.4453L18.5703 10.125C18.043 10.6523 17.75 11.3555 17.75 12.1172V15.75H15.875C15.3477 15.75 14.9375 16.2188 14.9375 16.6875C14.9375 17.2148 15.3477 17.625 15.875 17.625H23.2578C24.0195 17.625 24.7227 17.332 25.25 16.8047L32.5742 9.42188L33.2773 8.71875ZM12.8867 22.0195C13.3555 19.4414 10.8945 18.7969 9.60547 18.3867L9.3125 18.3281C7.90625 17.918 7.96484 17.7422 7.96484 17.4492C8.08203 16.9805 8.96094 16.9219 9.72266 17.0391C10.0742 17.0977 10.4258 17.1562 10.7773 17.2734C11.3633 17.5078 12.0664 17.2148 12.2422 16.5703C12.4766 15.9844 12.125 15.2812 11.5391 15.1055C11.1289 14.9297 10.7773 14.8711 10.4844 14.7539V14.1094C10.4844 13.4648 9.95703 12.9375 9.3125 12.9375C8.66797 12.9375 8.14062 13.4648 8.14062 14.1094V14.7539C6.79297 15.0469 5.85547 15.8672 5.67969 17.0391C5.21094 19.5586 7.61328 20.2617 8.60938 20.5547L8.96094 20.6719C10.6602 21.1406 10.6602 21.3164 10.6016 21.6094C10.4844 22.0781 9.60547 22.1367 8.84375 22.0195C8.43359 21.9609 7.90625 21.7852 7.4375 21.6094L7.20312 21.5508C6.55859 21.3164 5.91406 21.6094 5.67969 22.2539C5.50391 22.8398 5.79688 23.543 6.38281 23.7188L6.61719 23.8359C7.08594 24.0117 7.61328 24.1875 8.14062 24.2461V24.8906C8.14062 25.5938 8.66797 26.0625 9.3125 26.0625C9.95703 26.0625 10.4844 25.5938 10.4844 24.8906V24.3047C11.7734 24.0117 12.7109 23.1914 12.8867 22.0195ZM29.9375 23.25C30.4062 23.25 30.875 22.8398 30.875 22.3125C30.875 21.8438 30.4062 21.375 29.9375 21.375H15.875C15.3477 21.375 14.9375 21.8438 14.9375 22.3125C14.9375 22.8398 15.3477 23.25 15.875 23.25H29.9375ZM19.625 12.1172C19.625 11.8828 19.6836 11.6484 19.8594 11.4727L27.2422 4.14844L31.2266 8.13281L23.9023 15.5156C23.7266 15.6914 23.4922 15.75 23.2578 15.75H19.625V12.1172Z" fill="#081E60"/>
</svg>
