<svg width="19" height="17" viewBox="0 0 19 17" fill="none" xmlns="http://www.w3.org/2000/svg">
<path d="M18.56 2.78654C18.5358 3.34073 18.0767 3.83334 17.1825 4.26438C16.0708 4.77751 14.5846 5.09566 12.7237 5.21881C12.6029 5.15724 12.47 5.10593 12.325 5.06487C10.8508 4.55174 9.0625 4.2849 6.96 4.26438C6.67 4.26438 6.38 4.27465 6.09 4.29517L6.0175 4.26438C5.12334 3.83334 4.66416 3.34073 4.64 2.78654C4.68834 2.08868 5.365 1.5037 6.67 1.03162C7.975 0.580056 9.61834 0.344012 11.6 0.323486C13.5817 0.344012 15.225 0.580056 16.53 1.03162C17.835 1.5037 18.5117 2.08868 18.56 2.78654ZM5.83625 5.28039C6.19875 5.25987 6.57334 5.2496 6.96 5.2496C8.09584 5.2496 9.135 5.34197 10.0775 5.5267C11.0442 5.69091 11.8537 5.91667 12.5062 6.20404C13.4246 6.63507 13.8958 7.13795 13.92 7.71266C13.92 7.83581 13.8958 7.95897 13.8475 8.08212C13.6542 8.49264 13.2312 8.85182 12.5787 9.15971C12.5546 9.18022 12.5425 9.19049 12.5425 9.19049C11.89 9.49838 11.0804 9.73441 10.1137 9.89862C9.17125 10.0834 8.12 10.1757 6.96 10.1757C4.73666 10.1552 2.94834 9.85756 1.595 9.28286C1.5225 9.2418 1.45 9.21101 1.3775 9.19049C0.483334 8.75946 0.0241667 8.26685 0 7.71266C0.0241667 7.15847 0.459166 6.67613 1.305 6.26561C2.15083 5.8551 3.2625 5.56776 4.64 5.40354C5.02666 5.34197 5.42541 5.30091 5.83625 5.28039ZM15.08 7.71266C15.0317 7.03532 14.7417 6.4914 14.21 6.08088C15.2492 5.93721 16.1675 5.7217 16.965 5.43433C17.5692 5.22908 18.1008 4.97251 18.56 4.66463V5.74221C18.5358 6.35798 18.0042 6.88138 16.965 7.31241C16.4333 7.5382 15.805 7.72293 15.08 7.8666C15.08 7.82554 15.08 7.77424 15.08 7.71266ZM13.92 10.6683C13.8958 11.2225 13.4367 11.7151 12.5425 12.1462C12.4942 12.1667 12.4458 12.1872 12.3975 12.2077C12.3733 12.2077 12.3492 12.218 12.325 12.2385C10.9717 12.8132 9.18334 13.1109 6.96 13.1314C5.8 13.1314 4.74875 13.039 3.80625 12.8543C2.83958 12.6901 2.03 12.454 1.3775 12.1462C0.483334 11.7151 0.0241667 11.2225 0 10.6683V9.59074C0.459166 9.89862 0.990834 10.1552 1.595 10.3604C3.06916 10.8736 4.8575 11.1404 6.96 11.1609C9.0625 11.1404 10.8508 10.8736 12.325 10.3604C12.615 10.2578 12.8929 10.1449 13.1587 10.0218C13.3762 9.91914 13.5817 9.80626 13.775 9.68311C13.7992 9.66259 13.8354 9.64205 13.8837 9.62153C13.8837 9.60101 13.8958 9.59074 13.92 9.59074V9.68311V9.86784V10.6683ZM15.08 10.6683V9.68311V8.88261C15.7808 8.75946 16.4092 8.59525 16.965 8.39C17.5692 8.18475 18.1008 7.92818 18.56 7.6203V8.69788C18.56 9.02628 18.3787 9.34444 18.0162 9.65232C17.3879 10.1654 16.4092 10.5554 15.08 10.8223C15.08 10.7812 15.08 10.7299 15.08 10.6683ZM6.96 14.1166C9.0625 14.0961 10.8508 13.8292 12.325 13.3161C12.9292 13.1109 13.4608 12.8543 13.92 12.5464V13.624C13.8717 14.3219 13.195 14.9068 11.89 15.3789C10.585 15.8305 8.94166 16.0665 6.96 16.0871C4.97834 16.0665 3.335 15.8305 2.03 15.3789C0.725 14.9068 0.0483334 14.3219 0 13.624V12.5464C0.459166 12.8543 0.990834 13.1109 1.595 13.3161C3.06916 13.8292 4.8575 14.0961 6.96 14.1166Z" fill="#081E60"/>
</svg>
