<svg width="16" height="21" viewBox="0 0 16 21" fill="none" xmlns="http://www.w3.org/2000/svg">
<path d="M15.3541 4.60574L11.4922 0.810647C11.3083 0.629928 11.0861 0.540688 10.8257 0.542925L10.5913 0.544938L10.6357 5.54474L15.6355 5.50179L15.6334 5.26742C15.6311 5.00702 15.538 4.78646 15.3541 4.60574ZM9.38849 5.86797L9.34139 0.555676L1.52918 0.622786C1.26877 0.625023 1.04823 0.718067 0.867564 0.901918C0.686895 1.08577 0.597715 1.3079 0.600024 1.5683L0.760703 19.6926C0.763011 19.953 0.856116 20.1736 1.04002 20.3543C1.22392 20.535 1.44607 20.6242 1.70648 20.622L14.831 20.5093C15.0914 20.507 15.3119 20.414 15.4926 20.2301C15.6733 20.0463 15.7625 19.8241 15.7601 19.5637L15.6466 6.75174L10.3343 6.79738C10.0739 6.79961 9.8517 6.71037 9.6678 6.52965C9.4839 6.34894 9.39079 6.12837 9.38849 5.86797ZM3.11655 3.42175C3.11586 3.34363 3.14132 3.27831 3.19294 3.22578C3.27037 3.14698 3.34815 3.10725 3.42627 3.10658L6.55116 3.07974C6.62928 3.07907 6.69473 3.11757 6.7475 3.19524C6.82608 3.24665 6.86572 3.31142 6.86642 3.38954L6.87196 4.01452C6.87265 4.09264 6.83428 4.1711 6.75685 4.24989C6.70523 4.30242 6.64036 4.32902 6.56224 4.32969L3.43735 4.35653C3.35923 4.3572 3.28088 4.33183 3.20229 4.28042C3.14952 4.20275 3.12279 4.12485 3.12209 4.04673L3.11655 3.42175ZM3.14426 6.54663L3.13872 5.92166C3.13802 5.84353 3.16349 5.77821 3.21511 5.72568C3.29254 5.64689 3.37031 5.60715 3.44843 5.60648L6.57332 5.57964C6.65144 5.57897 6.71689 5.61747 6.76966 5.69514C6.84825 5.74655 6.88789 5.81132 6.88858 5.88944L6.89412 6.51442C6.89481 6.59254 6.85644 6.671 6.77901 6.74979C6.72739 6.80232 6.66252 6.82892 6.5844 6.82959L3.45952 6.85643C3.38139 6.85711 3.30304 6.83174 3.22446 6.78033C3.17168 6.70265 3.14495 6.62475 3.14426 6.54663ZM8.86047 16.8104L8.86878 17.7479C8.86947 17.826 8.83111 17.9044 8.75368 17.9832C8.70206 18.0358 8.63718 18.0624 8.55906 18.063L7.93409 18.0684C7.85596 18.0691 7.77761 18.0437 7.69903 17.9923C7.64625 17.9146 7.61952 17.8367 7.61883 17.7586L7.61052 16.8211C7.16759 16.7989 6.76258 16.6461 6.39547 16.3628C6.31688 16.3114 6.26423 16.2468 6.23749 16.1689C6.23657 16.0647 6.27482 15.9732 6.35225 15.8944L6.81717 15.4607C6.92041 15.3557 7.05062 15.3545 7.20779 15.4574C7.36472 15.5341 7.53433 15.5718 7.71662 15.5702L8.81033 15.5608C8.94053 15.5597 9.04423 15.5067 9.12143 15.4019C9.22467 15.2968 9.27571 15.1792 9.27456 15.049C9.2734 14.9188 9.23342 14.8149 9.15461 14.7375C9.1016 14.6338 9.0229 14.5693 8.91851 14.5442L7.15626 14.0515C6.79053 13.9244 6.4891 13.7057 6.25197 13.3952C6.01483 13.0847 5.89453 12.7342 5.89107 12.3436C5.88691 11.8748 6.03958 11.4699 6.34906 11.1286C6.68459 10.7872 7.08661 10.6015 7.55511 10.5714L7.5468 9.63393C7.54611 9.5558 7.57157 9.49048 7.62319 9.43795C7.70062 9.35916 7.77839 9.31943 7.85652 9.31875L8.48149 9.31339C8.55962 9.31271 8.62506 9.35122 8.67784 9.42889C8.75642 9.4803 8.79606 9.54507 8.79675 9.62319L8.80506 10.5607C9.24799 10.5829 9.653 10.7357 10.0201 11.019C10.0987 11.0704 10.1384 11.1482 10.1394 11.2523C10.1661 11.3302 10.1408 11.4086 10.0633 11.4874L9.5984 11.9211C9.49517 12.0261 9.36508 12.0403 9.20814 11.9635C9.05097 11.8607 8.88125 11.81 8.69896 11.8116L7.60525 11.821C7.47505 11.8221 7.35833 11.8752 7.25509 11.9803C7.17789 12.0851 7.13987 12.2026 7.14102 12.3328C7.14218 12.463 7.16925 12.58 7.22226 12.6837C7.30107 12.7612 7.39268 12.8125 7.49707 12.8376L9.25932 13.3303C9.62505 13.4574 9.92648 13.6761 10.1636 13.9866C10.4007 14.2971 10.521 14.6476 10.5245 15.0382C10.5287 15.507 10.363 15.912 10.0275 16.2535C9.71797 16.5947 9.32897 16.7803 8.86047 16.8104Z" fill="#081E60"/>
</svg>
