<svg width="46" height="27" viewBox="0 0 46 27" fill="none" xmlns="http://www.w3.org/2000/svg">
<path d="M21.625 19.8438C22.9141 19.8438 23.4414 21.0156 23.4414 21.7188C23.4414 23.0664 19.5156 26.9336 13.7734 26.9336C5.74609 26.9336 0.941406 20.0195 0.941406 13.8086C0.941406 7.71484 5.62891 0.683594 13.7734 0.683594C19.6328 0.683594 23.4414 4.60938 23.4414 5.89844C23.4414 6.60156 22.8555 7.77344 21.5664 7.77344C19.6914 7.77344 18.8711 4.43359 13.7734 4.43359C8.03125 4.43359 4.69141 9.41406 4.69141 13.8086C4.69141 18.1445 7.97266 23.1836 13.7734 23.1836C18.9297 23.125 19.75 19.8438 21.625 19.8438ZM44.125 19.8438C45.4141 19.8438 45.9414 21.0156 45.9414 21.7188C45.9414 23.0664 42.0156 26.9336 36.2734 26.9336C28.2461 26.9336 23.4414 20.0195 23.4414 13.8086C23.4414 7.71484 28.1289 0.683594 36.2734 0.683594C42.1328 0.683594 45.9414 4.60938 45.9414 5.89844C45.9414 6.60156 45.3555 7.77344 44.0664 7.77344C42.1914 7.77344 41.3711 4.43359 36.2734 4.43359C30.5312 4.43359 27.1914 9.41406 27.1914 13.8086C27.1914 18.1445 30.4727 23.1836 36.2734 23.1836C41.4297 23.125 42.25 19.8438 44.125 19.8438Z" fill="#081E60"/>
</svg>
