<svg width="43" height="27" viewBox="0 0 43 27" fill="none" xmlns="http://www.w3.org/2000/svg">
<path d="M21.625 19.8438C22.9141 19.8438 23.4414 21.0156 23.4414 21.7188C23.4414 23.0664 19.5156 26.9336 13.7734 26.9336C5.74609 26.9336 0.941406 20.0195 0.941406 13.8086C0.941406 7.71485 5.62891 0.683601 13.7734 0.683601C19.6328 0.683601 23.4414 4.60938 23.4414 5.89845C23.4414 6.60157 22.8555 7.77345 21.5664 7.77345C19.6914 7.77345 18.8711 4.4336 13.7734 4.4336C8.03125 4.4336 4.69141 9.41407 4.69141 13.8086C4.69141 18.1445 7.97266 23.1836 13.7734 23.1836C18.9297 23.125 19.75 19.8438 21.625 19.8438ZM32.875 0.683601C38.0312 0.683601 42.25 4.96095 42.25 10.0586C42.25 15.2149 38.0312 19.4336 32.875 19.4336H27.25V25.0586C27.25 26.0547 26.3711 26.9336 25.375 26.9336C24.3203 26.9336 23.5 26.0547 23.5 25.0586V2.5586C23.5 1.50391 24.3203 0.683601 25.375 0.683601H32.875ZM32.875 15.625C35.9219 15.625 38.5 13.1055 38.5 10.0586C38.5 6.95313 35.9219 4.4336 32.875 4.4336H27.25V15.625H32.875Z" fill="#081E60"/>
</svg>
