<svg width="30" height="35" viewBox="0 0 30 35" fill="none" xmlns="http://www.w3.org/2000/svg">
<g clip-path="url(#clip0_1326_2077)">
<path d="M13.9286 0H22.2388C23.0893 0 23.9062 0.341518 24.5089 0.944196L29.0558 5.49107C29.6585 6.09375 30 6.91071 30 7.76116V22.5C30 24.2746 28.5603 25.7143 26.7857 25.7143H13.9286C12.154 25.7143 10.7143 24.2746 10.7143 22.5V3.21429C10.7143 1.43973 12.154 0 13.9286 0ZM3.21429 8.57143H8.57143V12.8571H4.28571V30H17.1429V27.8571H21.4286V31.0714C21.4286 32.846 19.9888 34.2857 18.2143 34.2857H3.21429C1.43973 34.2857 0 32.846 0 31.0714V11.7857C0 10.0112 1.43973 8.57143 3.21429 8.57143Z" fill="#081E60"/>
</g>
<defs>
<clipPath id="clip0_1326_2077">
<rect width="30" height="34.2857" fill="white"/>
</clipPath>
</defs>
</svg>
