<svg width="19" height="19" viewBox="0 0 19 19" fill="none" xmlns="http://www.w3.org/2000/svg">
<path d="M18.56 3.78196C18.5358 4.41635 18.0767 4.98027 17.1825 5.47369C16.0708 6.06108 14.5846 6.42529 12.7237 6.56626C12.6029 6.49578 12.47 6.43704 12.325 6.39004C10.8508 5.80264 9.0625 5.49717 6.96 5.47369C6.67 5.47369 6.38 5.48544 6.09 5.50893L6.0175 5.47369C5.12334 4.98027 4.66416 4.41635 4.64 3.78196C4.68834 2.98308 5.365 2.31344 6.67 1.77302C7.975 1.25611 9.61834 0.985899 11.6 0.962402C13.5817 0.985899 15.225 1.25611 16.53 1.77302C17.835 2.31344 18.5117 2.98308 18.56 3.78196ZM5.83625 6.63675C6.19875 6.61327 6.57334 6.60151 6.96 6.60151C8.09584 6.60151 9.135 6.70724 10.0775 6.91871C11.0442 7.10669 11.8537 7.36513 12.5062 7.69409C13.4246 8.18751 13.8958 8.76318 13.92 9.42106C13.92 9.56204 13.8958 9.70302 13.8475 9.84399C13.6542 10.3139 13.2312 10.7251 12.5787 11.0775C12.5546 11.101 12.5425 11.1128 12.5425 11.1128C11.89 11.4652 11.0804 11.7354 10.1137 11.9234C9.17125 12.1349 8.12 12.2406 6.96 12.2406C4.73666 12.2171 2.94834 11.8764 1.595 11.2185C1.5225 11.1715 1.45 11.1363 1.3775 11.1128C0.483334 10.6194 0.0241667 10.0555 0 9.42106C0.0241667 8.78666 0.459166 8.23451 1.305 7.76457C2.15083 7.29464 3.2625 6.96571 4.64 6.77773C5.02666 6.70724 5.42541 6.66024 5.83625 6.63675ZM15.08 9.42106C15.0317 8.64568 14.7417 8.02304 14.21 7.55311C15.2492 7.38864 16.1675 7.14193 16.965 6.81297C17.5692 6.57802 18.1008 6.28431 18.56 5.93186V7.16542C18.5358 7.87031 18.0042 8.46946 16.965 8.96288C16.4333 9.22135 15.805 9.43282 15.08 9.59728C15.08 9.55028 15.08 9.49155 15.08 9.42106ZM13.92 12.8045C13.8958 13.4389 13.4367 14.0028 12.5425 14.4963C12.4942 14.5197 12.4458 14.5433 12.3975 14.5667C12.3733 14.5667 12.3492 14.5785 12.325 14.602C10.9717 15.2599 9.18334 15.6006 6.96 15.6241C5.8 15.6241 4.74875 15.5183 3.80625 15.3069C2.83958 15.1189 2.03 14.8487 1.3775 14.4963C0.483334 14.0028 0.0241667 13.4389 0 12.8045V11.571C0.459166 11.9234 0.990834 12.2171 1.595 12.4521C3.06916 13.0395 4.8575 13.3449 6.96 13.3684C9.0625 13.3449 10.8508 13.0395 12.325 12.4521C12.615 12.3346 12.8929 12.2054 13.1587 12.0644C13.3762 11.9469 13.5817 11.8177 13.775 11.6767C13.7992 11.6532 13.8354 11.6297 13.8837 11.6062C13.8837 11.5827 13.8958 11.571 13.92 11.571V11.6767V11.8882V12.8045ZM15.08 12.8045V11.6767V10.7603C15.7808 10.6194 16.4092 10.4314 16.965 10.1964C17.5692 9.96148 18.1008 9.66777 18.56 9.31533V10.5489C18.56 10.9248 18.3787 11.289 18.0162 11.6415C17.3879 12.2289 16.4092 12.6753 15.08 12.9807C15.08 12.9337 15.08 12.875 15.08 12.8045ZM6.96 16.7519C9.0625 16.7284 10.8508 16.4229 12.325 15.8355C12.9292 15.6006 13.4608 15.3069 13.92 14.9544V16.188C13.8717 16.9869 13.195 17.6565 11.89 18.1969C10.585 18.7138 8.94166 18.9841 6.96 19.0075C4.97834 18.9841 3.335 18.7138 2.03 18.1969C0.725 17.6565 0.0483334 16.9869 0 16.188V14.9544C0.459166 15.3069 0.990834 15.6006 1.595 15.8355C3.06916 16.4229 4.8575 16.7284 6.96 16.7519Z" fill="#081E60"/>
</svg>
