<svg width="21" height="25" viewBox="0 0 21 25" fill="none" xmlns="http://www.w3.org/2000/svg">
<path d="M6.32812 0.859521C6.60938 0.318341 7.0625 0.0318341 7.6875 0H13.3125C13.9375 0.0318341 14.3906 0.318341 14.6719 0.859521L15 1.52804H19.5C19.9375 1.52804 20.2969 1.67129 20.5781 1.9578C20.8594 2.2443 21 2.6104 21 3.05607C21 3.50175 20.8594 3.86784 20.5781 4.15435C20.2969 4.44086 19.9375 4.58411 19.5 4.58411H1.5C1.0625 4.58411 0.703125 4.44086 0.421875 4.15435C0.140625 3.86784 0 3.50175 0 3.05607C0 2.6104 0.140625 2.2443 0.421875 1.9578C0.703125 1.67129 1.0625 1.52804 1.5 1.52804H6L6.32812 0.859521ZM1.5 6.11215H19.5V21.3925C19.4688 22.252 19.1719 22.9683 18.6094 23.5413C18.0469 24.1143 17.3438 24.4168 16.5 24.4486H4.5C3.65625 24.4168 2.95312 24.1143 2.39062 23.5413C1.82812 22.9683 1.53125 22.252 1.5 21.3925V6.11215ZM6 9.16822C5.53125 9.20006 5.28125 9.45473 5.25 9.93224V20.6285C5.28125 21.106 5.53125 21.3607 6 21.3925C6.46875 21.3607 6.71875 21.106 6.75 20.6285V9.93224C6.71875 9.45473 6.46875 9.20006 6 9.16822ZM10.5 9.16822C10.0312 9.20006 9.78125 9.45473 9.75 9.93224V20.6285C9.78125 21.106 10.0312 21.3607 10.5 21.3925C10.9688 21.3607 11.2188 21.106 11.25 20.6285V9.93224C11.2188 9.45473 10.9688 9.20006 10.5 9.16822ZM15 9.16822C14.5312 9.20006 14.2812 9.45473 14.25 9.93224V20.6285C14.2812 21.106 14.5312 21.3607 15 21.3925C15.4688 21.3607 15.7188 21.106 15.75 20.6285V9.93224C15.7188 9.45473 15.4688 9.20006 15 9.16822Z" fill="black" fill-opacity="0.6"/>
</svg>
