<svg width="23" height="31" viewBox="0 0 23 31" fill="none" xmlns="http://www.w3.org/2000/svg">
<path d="M19.6875 0.75C21.2109 0.75 22.5 2.03906 22.5 3.5625V27.9375C22.5 29.5195 21.2109 30.75 19.6875 30.75H14.0625V26.0625C14.0625 24.5391 12.7734 23.25 11.25 23.25C9.66797 23.25 8.4375 24.5391 8.4375 26.0625V30.75H2.8125C1.23047 30.75 0 29.5195 0 27.9375V3.5625C0 2.03906 1.23047 0.75 2.8125 0.75H19.6875ZM3.75 16.6875C3.75 17.2148 4.16016 17.625 4.6875 17.625H6.5625C7.03125 17.625 7.5 17.2148 7.5 16.6875V14.8125C7.5 14.3438 7.03125 13.875 6.5625 13.875H4.6875C4.16016 13.875 3.75 14.3438 3.75 14.8125V16.6875ZM10.3125 13.875C9.78516 13.875 9.375 14.3438 9.375 14.8125V16.6875C9.375 17.2148 9.78516 17.625 10.3125 17.625H12.1875C12.6562 17.625 13.125 17.2148 13.125 16.6875V14.8125C13.125 14.3438 12.6562 13.875 12.1875 13.875H10.3125ZM15 16.6875C15 17.2148 15.4102 17.625 15.9375 17.625H17.8125C18.2812 17.625 18.75 17.2148 18.75 16.6875V14.8125C18.75 14.3438 18.2812 13.875 17.8125 13.875H15.9375C15.4102 13.875 15 14.3438 15 14.8125V16.6875ZM4.6875 6.375C4.16016 6.375 3.75 6.84375 3.75 7.3125V9.1875C3.75 9.71484 4.16016 10.125 4.6875 10.125H6.5625C7.03125 10.125 7.5 9.71484 7.5 9.1875V7.3125C7.5 6.84375 7.03125 6.375 6.5625 6.375H4.6875ZM9.375 9.1875C9.375 9.71484 9.78516 10.125 10.3125 10.125H12.1875C12.6562 10.125 13.125 9.71484 13.125 9.1875V7.3125C13.125 6.84375 12.6562 6.375 12.1875 6.375H10.3125C9.78516 6.375 9.375 6.84375 9.375 7.3125V9.1875ZM15.9375 6.375C15.4102 6.375 15 6.84375 15 7.3125V9.1875C15 9.71484 15.4102 10.125 15.9375 10.125H17.8125C18.2812 10.125 18.75 9.71484 18.75 9.1875V7.3125C18.75 6.84375 18.2812 6.375 17.8125 6.375H15.9375Z" fill="#081E60"/>
</svg>
