<svg width="48" height="48" viewBox="0 0 48 48" fill="none" xmlns="http://www.w3.org/2000/svg">
<path d="M24 48C19.5 47.9375 15.4688 46.8438 11.9062 44.7188C8.28125 42.5938 5.40625 39.7188 3.28125 36.0938C1.15625 32.5312 0.0625 28.5 0 24C0.0625 19.5 1.15625 15.4688 3.28125 11.9062C5.40625 8.28125 8.28125 5.40625 11.9062 3.28125C15.4688 1.15625 19.5 0.0625 24 0C28.5 0.0625 32.5312 1.15625 36.0938 3.28125C39.7188 5.40625 42.5938 8.28125 44.7188 11.9062C46.8438 15.4688 47.9375 19.5 48 24C47.9375 28.5 46.8438 32.5312 44.7188 36.0938C42.5938 39.7188 39.7188 42.5938 36.0938 44.7188C32.5312 46.8438 28.5 47.9375 24 48ZM16.4062 16.4062C15.5312 17.4688 15.5312 18.5312 16.4062 19.5938L20.8125 24L16.4062 28.4062C15.5312 29.4688 15.5312 30.5312 16.4062 31.5938C17.4688 32.4688 18.5312 32.4688 19.5938 31.5938L24 27.1875L28.4062 31.5938C29.4688 32.4688 30.5312 32.4688 31.5938 31.5938C32.4688 30.5312 32.4688 29.4688 31.5938 28.4062L27.1875 24L31.5938 19.5938C32.4688 18.5312 32.4688 17.4688 31.5938 16.4062C30.5312 15.5312 29.4688 15.5312 28.4062 16.4062L24 20.8125L19.5938 16.4062C18.5312 15.5312 17.4688 15.5312 16.4062 16.4062Z" fill="#FC3737"/>
</svg>
