<svg width="640" height="512" viewBox="0 0 640 512" fill="none" xmlns="http://www.w3.org/2000/svg">
<g clip-path="url(#clip0_67_16693)">
<path d="M325.111 351.487L225.778 273.631C234.08 318.19 273.041 352.002 319.998 352.002C321.75 352.002 323.383 351.579 325.111 351.487ZM320.061 400.002H319.998C240.498 400.002 175.999 335.487 175.999 256.004C175.999 249.215 177.088 242.723 177.998 236.184L81.2859 160.382C63.5149 184.128 48.0129 210.426 35.4679 238.977C33.5619 243.406 31.9989 251.045 31.9989 256.004C31.9989 260.98 33.5619 268.599 35.4679 273.029C89.7179 396.474 197.061 480 319.998 480C365.461 480 408.769 468.508 448.074 447.862L373.566 389.465C356.996 396.123 339.004 400.002 320.061 400.002ZM630.811 469.102L527.134 387.842C558.501 355.877 585.097 317.251 604.528 273.029C606.435 268.599 607.997 260.961 607.997 256.004C607.997 251.027 606.435 243.406 604.528 238.977C550.278 115.531 442.935 32.007 319.998 32.007C257.307 32.007 198.768 53.921 149.165 91.6L38.8139 5.109C34.4069 1.672 29.1889 0 24.0319 0C16.9069 0 9.84494 3.156 5.12594 9.187C-3.06106 19.625 -1.24906 34.718 9.18894 42.89L601.186 506.883C611.686 515.086 626.749 513.211 634.874 502.805C643.061 492.367 641.249 477.274 630.811 469.102ZM463.997 256.066C463.997 280.918 457.304 304.013 446.062 324.302L407.504 294.08C412.744 282.396 415.998 269.658 415.998 256.004C415.998 203.009 372.994 160.005 319.998 160.005H319.779C317.479 160.035 314.424 160.447 311.537 160.769C316.768 170.042 319.998 180.599 319.998 192.005C319.998 202.175 317.422 211.643 313.162 220.137L223.711 150.027C249.176 126.643 282.699 112.006 319.998 112.006C399.498 112.006 463.997 176.521 463.997 256.004V256.066Z" fill="white"/>
</g>
<defs>
<clipPath id="clip0_67_16693">
<rect width="640" height="512" fill="white"/>
</clipPath>
</defs>
</svg>
