<svg width="27" height="18" viewBox="0 0 27 18" fill="none" xmlns="http://www.w3.org/2000/svg">
<path d="M26.6719 7.875C26.8906 8.21875 27 8.59375 27 9C27 9.40625 26.8906 9.78125 26.6719 10.125C25.3281 12.4062 23.5 14.2188 21.1875 15.5625C18.8438 16.9375 16.2812 17.625 13.5 17.625C10.7188 17.625 8.15625 16.9375 5.8125 15.5625C3.5 14.2188 1.67188 12.4062 0.328125 10.125C0.109375 9.78125 0 9.40625 0 9C0 8.59375 0.109375 8.21875 0.328125 7.875C1.67188 5.59375 3.5 3.78125 5.8125 2.4375C8.15625 1.0625 10.7188 0.375 13.5 0.375C16.2812 0.375 18.8438 1.0625 21.1875 2.4375C23.5 3.78125 25.3281 5.59375 26.6719 7.875ZM13.5 15.375C14.6562 15.375 15.7188 15.0938 16.6875 14.5312C17.6562 13.9375 18.4219 13.1562 18.9844 12.1875C19.5781 11.2188 19.875 10.1562 19.875 9C19.875 7.84375 19.5781 6.78125 18.9844 5.8125C18.4219 4.84375 17.6562 4.07812 16.6875 3.51562C15.7188 2.92187 14.6562 2.625 13.5 2.625C12.3438 2.625 11.2812 2.92187 10.3125 3.51562C9.34375 4.07812 8.5625 4.84375 7.96875 5.8125C7.40625 6.78125 7.125 7.84375 7.125 9C7.125 10.1562 7.40625 11.2188 7.96875 12.1875C8.5625 13.1562 9.34375 13.9375 10.3125 14.5312C11.2812 15.0938 12.3438 15.375 13.5 15.375ZM18.375 9C18.375 7.65625 17.8906 6.51562 16.9219 5.57812C15.9844 4.60937 14.8438 4.125 13.5 4.125C12.6875 4.125 11.9219 4.3125 11.2031 4.6875C11.7656 4.6875 12.2344 4.89062 12.6094 5.29688C13.0156 5.67188 13.2188 6.14062 13.2188 6.70312C13.2188 7.26562 13.0156 7.75 12.6094 8.15625C12.2344 8.53125 11.7656 8.71875 11.2031 8.71875C10.6406 8.71875 10.1562 8.53125 9.75 8.15625C9.375 7.75 9.1875 7.26562 9.1875 6.70312C8.8125 7.42188 8.625 8.1875 8.625 9C8.625 10.3438 9.09375 11.5 10.0312 12.4688C11 13.4062 12.1562 13.875 13.5 13.875C14.8438 13.875 15.9844 13.4062 16.9219 12.4688C17.8906 11.5 18.375 10.3438 18.375 9Z" fill="white"/>
</svg>
