<svg width="25" height="25" viewBox="0 0 25 25" fill="none" xmlns="http://www.w3.org/2000/svg">
<path d="M21.3442 3.66659C16.4657 -1.21795 8.55121 -1.2228 3.66661 3.65568C-1.21793 8.53428 -1.22285 16.4488 3.65575 21.3334C8.53424 26.218 16.4488 26.2228 21.3334 21.3443C26.2179 16.4658 26.2228 8.55113 21.3442 3.66659ZM14.2453 20.4318C14.2453 20.6247 14.089 20.7809 13.8963 20.7809H11.1038C10.911 20.7809 10.7547 20.6247 10.7547 20.4318V10.0655C10.7547 9.87265 10.911 9.71647 11.1038 9.71647H13.8963C14.089 9.71647 14.2453 9.87259 14.2453 10.0655V20.4318ZM12.5 8.26784C11.3838 8.26784 10.4756 7.35976 10.4756 6.24346C10.4756 5.12727 11.3837 4.21902 12.5 4.21902C13.6163 4.21902 14.5245 5.12721 14.5245 6.24346C14.5245 7.35976 13.6162 8.26784 12.5 8.26784Z" fill="white"/>
</svg>
