<svg width="48" height="48" viewBox="0 0 48 48" fill="none" xmlns="http://www.w3.org/2000/svg">
<path d="M24 -2.09815e-06C28.5 0.0624983 32.5313 1.15625 36.0938 3.28125C39.7188 5.40625 42.5938 8.28125 44.7188 11.9062C46.8438 15.4687 47.9375 19.5 48 24C47.9375 28.5 46.8438 32.5312 44.7188 36.0937C42.5938 39.7187 39.7188 42.5937 36.0938 44.7187C32.5313 46.8437 28.5 47.9375 24 48C19.5 47.9375 15.4688 46.8437 11.9063 44.7187C8.28125 42.5937 5.40625 39.7187 3.28125 36.0937C1.15625 32.5312 0.0625026 28.5 2.97237e-06 24C0.0625034 19.5 1.15625 15.4687 3.28125 11.9062C5.40625 8.28125 8.28125 5.40625 11.9063 3.28125C15.4688 1.15625 19.5 0.0624975 24 -2.09815e-06ZM24 36C25.375 35.875 26.125 35.125 26.25 33.75L26.25 23.25C26.125 21.875 25.375 21.125 24 21C22.625 21.125 21.875 21.875 21.75 23.25L21.75 33.75C21.875 35.125 22.625 35.875 24 36ZM21 15C21 15.875 21.2813 16.5937 21.8438 17.1562C22.4063 17.7187 23.125 18 24 18C24.875 18 25.5938 17.7187 26.1563 17.1562C26.7188 16.5937 27 15.875 27 15C27 14.125 26.7188 13.4062 26.1563 12.8437C25.5938 12.2812 24.875 12 24 12C23.125 12 22.4063 12.2812 21.8438 12.8437C21.2813 13.4062 21 14.125 21 15Z" fill="#308EFC"/>
</svg>
