<svg width="19" height="26" viewBox="0 0 19 26" fill="none" xmlns="http://www.w3.org/2000/svg">
<path d="M3.125 0.125H10.9375V6.375C10.9375 6.83073 11.084 7.20508 11.377 7.49805C11.6699 7.79102 12.0443 7.9375 12.5 7.9375H18.75V22C18.7174 22.8789 18.4082 23.6113 17.8223 24.1973C17.2363 24.7832 16.5039 25.0924 15.625 25.125H3.125C2.24609 25.0924 1.51367 24.7832 0.927734 24.1973C0.341797 23.6113 0.0325521 22.8789 0 22V3.25C0.0325521 2.37109 0.341797 1.63867 0.927734 1.05273C1.51367 0.466797 2.24609 0.157552 3.125 0.125ZM12.5 0.125L18.75 6.375H12.5V0.125ZM3.90625 3.25C3.41797 3.28255 3.15755 3.54297 3.125 4.03125C3.15755 4.51953 3.41797 4.77995 3.90625 4.8125H7.03125C7.51953 4.77995 7.77995 4.51953 7.8125 4.03125C7.77995 3.54297 7.51953 3.28255 7.03125 3.25H3.90625ZM3.90625 6.375C3.41797 6.40755 3.15755 6.66797 3.125 7.15625C3.15755 7.64453 3.41797 7.90495 3.90625 7.9375H7.03125C7.51953 7.90495 7.77995 7.64453 7.8125 7.15625C7.77995 6.66797 7.51953 6.40755 7.03125 6.375H3.90625ZM6.54297 18.7773L7.03125 17.166L7.86133 19.9004C7.95898 20.2259 8.18685 20.4049 8.54492 20.4375C8.87044 20.4375 9.11458 20.291 9.27734 19.998L9.7168 19.168C9.81445 18.9727 9.96094 18.875 10.1562 18.875C10.3516 18.875 10.498 18.9727 10.5957 19.168L11.0352 19.998C11.1654 20.291 11.3932 20.4375 11.7188 20.4375H14.8438C15.332 20.4049 15.5924 20.1445 15.625 19.6562C15.5924 19.168 15.332 18.9076 14.8438 18.875H12.207L12.0117 18.4355C11.5885 17.7194 10.9701 17.3451 10.1562 17.3125C9.66797 17.3125 9.22852 17.4753 8.83789 17.8008L8.30078 15.8965C8.07292 15.3105 7.64974 15.0013 7.03125 14.9688C6.41276 15.0013 5.98958 15.3105 5.76172 15.8965L5.07812 18.3379C4.94792 18.6634 4.6875 18.8424 4.29688 18.875H3.90625C3.41797 18.9076 3.15755 19.168 3.125 19.6562C3.15755 20.1445 3.41797 20.4049 3.90625 20.4375H4.29688C5.4362 20.3724 6.1849 19.819 6.54297 18.7773Z" fill="#081E60"/>
</svg>
