<?xml version="1.0" encoding="UTF-8"?>
<!DOCTYPE svg PUBLIC "-//W3C//DTD SVG 1.1//EN" "http://www.w3.org/Graphics/SVG/1.1/DTD/svg11.dtd">
<!-- Creator: CorelDRAW 2019 (64 Bit) -->
<svg xmlns="http://www.w3.org/2000/svg" xml:space="preserve" width="8mm" height="5.5mm" version="1.1" style="shape-rendering:geometricPrecision; text-rendering:geometricPrecision; image-rendering:optimizeQuality; fill-rule:evenodd; clip-rule:evenodd"
viewBox="0 0 80000 55000"
 xmlns:xlink="http://www.w3.org/1999/xlink">
 <defs>
  <style type="text/css">
   <![CDATA[
    .fil0 {fill:#545454}
    .fil1 {fill:#545454;fill-rule:nonzero}
   ]]>
  </style>
 </defs>
 <g id="Camada_x0020_1">
  <metadata id="CorelCorpID_0Corel-Layer"/>
  <g id="_2461432486160">
   <path class="fil0" d="M21738 12132l38577 0c2445,0 4445,2000 4445,4445l0 22726c0,2445 -2000,4445 -4445,4445l-38577 0c-1555,0 -2929,-810 -3724,-2027 424,159 882,247 1358,247 2048,0 3780,-1612 3780,-3683l0 -10732 731 700c1470,1407 3829,1407 5299,0 719,-689 1130,-1632 1130,-2629 0,-997 -411,-1939 -1130,-2628l-7161 -6855c-91,-87 -186,-169 -285,-246 -25,-21 -74,-55 -124,-91 -56,-39 -100,-71 -146,-101 -66,-44 -131,-81 -200,-119 -23,-14 -72,-43 -124,-70 -63,-33 -126,-61 -191,-90 -41,-18 -83,-37 -125,-55 -85,-34 -133,-50 -182,-67 -84,-28 -133,-45 -184,-60 -63,-19 -125,-34 -189,-49 -53,-13 -105,-26 -158,-36 -94,-18 -160,-26 -227,-35 -42,-7 -93,-14 -145,-19 -245,-24 -493,-24 -738,0 -52,5 -103,12 -155,21 -57,7 -123,15 -190,28 -80,15 -132,28 -185,41 -64,15 -126,30 -189,49 -51,15 -100,32 -150,48 -88,31 -142,49 -195,71 -50,20 -98,42 -146,63 -65,29 -128,57 -191,90 -52,27 -101,56 -152,86l-55 31c436,-1994 2222,-3499 4343,-3499zm32599 26973c243,-3133 2147,-5177 5319,-5172l-37 5218 -5282 -46zm-13311 -18884c4264,0 7720,3454 7720,7719 0,4264 -3456,7719 -7720,7719 -4263,0 -7720,-3455 -7720,-7719 0,-4265 3457,-7719 7720,-7719zm18620 2494c-3136,-193 -5211,-2066 -5255,-5238l5217 -44 38 5282z"/>
   <path class="fil1" d="M20799 17102c-26,-21 -55,-39 -82,-59 -31,-22 -62,-45 -94,-66 -33,-22 -68,-40 -102,-59 -29,-17 -57,-34 -87,-50 -35,-18 -71,-33 -107,-49 -31,-14 -61,-28 -92,-41 -36,-14 -72,-25 -108,-38 -33,-11 -66,-23 -100,-33 -37,-11 -75,-19 -112,-28 -34,-8 -67,-17 -102,-24 -44,-8 -89,-13 -134,-19 -28,-4 -55,-9 -84,-12 -148,-14 -298,-14 -446,0 -29,3 -56,8 -84,12 -45,6 -90,11 -134,19 -35,7 -68,16 -102,24 -37,9 -75,17 -112,28 -34,10 -67,22 -100,33 -36,13 -72,24 -107,38 -32,13 -62,27 -93,41 -36,16 -72,31 -107,49 -30,16 -58,33 -87,50 -34,19 -68,37 -102,59 -32,21 -62,44 -94,66 -27,20 -56,38 -82,59 -58,45 -113,93 -165,143l-7161 6855c-879,842 -879,2207 0,3049 880,842 2305,842 3185,0l3316 -3175 0 14311c0,1190 1008,2155 2252,2155 1244,0 2252,-965 2252,-2155l0 -14311 3316 3175c879,842 2305,842 3185,0 439,-421 659,-973 659,-1525 0,-551 -220,-1103 -659,-1524l-7161 -6855c-52,-50 -107,-98 -165,-143z"/>
  </g>
 </g>
</svg>
