<svg width="36" height="37" viewBox="0 0 36 37" fill="none" xmlns="http://www.w3.org/2000/svg">
<path d="M18 0.9375C27.7969 0.9375 35.8125 8.95312 35.8125 18.75C35.8125 28.6211 27.7969 36.5625 18 36.5625C8.12891 36.5625 0.1875 28.6211 0.1875 18.75C0.1875 8.95312 8.12891 0.9375 18 0.9375ZM24.3828 23.1289C25.1992 18.8242 20.9688 17.7109 18.4453 17.043L17.7773 16.8945C14.8086 16.0781 14.957 15.6328 15.0312 15.1133C15.1797 14.2227 16.8867 13.7773 18.8906 14.0742C19.4844 14.1484 20.1523 14.2969 20.9688 14.5938C21.9336 14.8906 22.8984 14.3711 23.1953 13.4805C23.4922 12.5156 22.9727 11.4766 22.082 11.1797C21.1172 10.8828 20.4492 10.7344 19.7812 10.5859V9.25C19.7812 8.28516 18.9648 7.46875 18 7.46875C16.9609 7.46875 16.2188 8.28516 16.2188 9.25V10.5859C13.6953 10.957 11.9141 12.3672 11.543 14.4453C10.7266 18.6758 15.0312 19.8633 16.8867 20.3086L17.4805 20.5312C20.7461 21.3477 21.043 21.7188 20.8945 22.4609C20.7461 23.3516 19.0391 23.7969 16.9609 23.5C16.1445 23.3516 15.1797 23.0547 14.2148 22.7578L13.7695 22.6094C12.8047 22.2383 11.8398 22.7578 11.543 23.7227C11.2461 24.6133 11.6914 25.6523 12.6562 25.9492L13.1016 26.0977C14.0664 26.3945 15.1055 26.7656 16.2188 26.9141V28.25C16.2188 29.2891 16.9609 30.0312 18 30.0312C18.9648 30.0312 19.7812 29.2891 19.7812 28.25V26.9883C22.2305 26.6172 24.0117 25.207 24.3828 23.1289Z" fill="#081E60"/>
</svg>
