<svg width="24" height="24" viewBox="0 0 24 24" fill="none" xmlns="http://www.w3.org/2000/svg">
<path d="M21.7263 19.2913L17.8322 15.3971C17.6564 15.2214 17.4182 15.1237 17.1682 15.1237H16.5315C17.6096 13.7449 18.2501 12.0107 18.2501 10.1242C18.2501 5.63636 14.6138 2 10.1259 2C5.63807 2 2.00171 5.63636 2.00171 10.1242C2.00171 14.612 5.63807 18.2484 10.1259 18.2484C12.0125 18.2484 13.7467 17.6079 15.1254 16.5298V17.1665C15.1254 17.4165 15.2231 17.6547 15.3988 17.8305L19.293 21.7246C19.6601 22.0918 20.2538 22.0918 20.6171 21.7246L21.7224 20.6193C22.0896 20.2521 22.0896 19.6584 21.7263 19.2913ZM10.1259 15.1237C7.36447 15.1237 5.1264 12.8896 5.1264 10.1242C5.1264 7.36276 7.36056 5.12469 10.1259 5.12469C12.8874 5.12469 15.1254 7.35885 15.1254 10.1242C15.1254 12.8857 12.8913 15.1237 10.1259 15.1237Z" fill="#2F368E"/>
</svg>
