<svg width="48" height="48" viewBox="0 0 48 48" fill="none" xmlns="http://www.w3.org/2000/svg">
<path d="M24 48C19.5 47.9375 15.4688 46.8438 11.9062 44.7188C8.28125 42.5938 5.40625 39.7188 3.28125 36.0938C1.15625 32.5312 0.0625 28.5 0 24C0.0625 19.5 1.15625 15.4688 3.28125 11.9062C5.40625 8.28125 8.28125 5.40625 11.9062 3.28125C15.4688 1.15625 19.5 0.0625 24 0C28.5 0.0625 32.5312 1.15625 36.0938 3.28125C39.7188 5.40625 42.5938 8.28125 44.7188 11.9062C46.8438 15.4688 47.9375 19.5 48 24C47.9375 28.5 46.8438 32.5312 44.7188 36.0938C42.5938 39.7188 39.7188 42.5938 36.0938 44.7188C32.5312 46.8438 28.5 47.9375 24 48ZM34.5938 19.5938C35.4688 18.5312 35.4688 17.4688 34.5938 16.4062C33.5312 15.5312 32.4688 15.5312 31.4062 16.4062L21 26.8125L16.5938 22.4062C15.5312 21.5312 14.4688 21.5312 13.4062 22.4062C12.5312 23.4688 12.5312 24.5312 13.4062 25.5938L19.4062 31.5938C20.4688 32.4688 21.5312 32.4688 22.5938 31.5938L34.5938 19.5938Z" fill="#30BE60"/>
</svg>
